<svg id="Capa_1" data-name="Capa 1" xmlns="http://www.w3.org/2000/svg" viewBox="0 0 460.8 512"><defs><style>.cls-1{fill:#fff;}</style></defs><title>bluetooth-indicator-white</title><g id="bluetooth-audio"><path class="cls-1" d="M286.7,256l58.9,58.9c7.7-17.9,10.2-38.4,10.2-58.9s-5.1-41-10.2-58.9ZM422.4,120.3l-30.7,33.3c15.4,30.7,25.6,66.6,25.6,102.4s-10.2,71.7-25.6,102.4l30.7,30.7c25.6-38.4,38.4-87,38.4-135.7S448,158.7,422.4,120.3Zm-97.3,25.6L179.2,0H153.6V194.6L35.8,76.8,0,112.6,143.4,256,0,399.4l35.8,35.8L153.6,317.4V512h25.6L325.1,366.1,215,256ZM204.8,97.3l48.6,48.6-48.6,48.6V97.3Zm48.6,268.8-48.6,48.6V317.4Z"/></g></svg>