<?xml version="1.0" encoding="utf-8"?>
<!-- Generator: Adobe Illustrator 22.0.1, SVG Export Plug-In . SVG Version: 6.00 Build 0)  -->
<svg version="1.1" id="Capa_1" xmlns="http://www.w3.org/2000/svg" xmlns:xlink="http://www.w3.org/1999/xlink" x="0px" y="0px"
	 viewBox="0 0 460.8 512" style="enable-background:new 0 0 460.8 512;" xml:space="preserve">
<style type="text/css">
	.st0{fill:#4F6D7A;}
</style>
<g>
	<g id="bluetooth-audio">
		<path class="st0" d="M286.7,256l58.9,58.9c7.7-17.9,10.2-38.4,10.2-58.9c0-20.5-5.1-41-10.2-58.9L286.7,256z M422.4,120.3
			l-30.7,33.3c15.4,30.7,25.6,66.6,25.6,102.4c0,35.8-10.2,71.7-25.6,102.4l30.7,30.7c25.6-38.4,38.4-87,38.4-135.7
			S448,158.7,422.4,120.3z M325.1,145.9L179.2,0h-25.6v194.6L35.8,76.8L0,112.6L143.4,256L0,399.4l35.8,35.8l117.8-117.8V512h25.6
			l145.9-145.9L215,256L325.1,145.9z M204.8,97.3l48.6,48.6l-48.6,48.6V97.3z M253.4,366.1l-48.6,48.6v-97.3L253.4,366.1z"/>
	</g>
</g>
</svg>
