<?xml version="1.0" encoding="utf-8"?>
<!-- Generator: Adobe Illustrator 22.0.1, SVG Export Plug-In . SVG Version: 6.00 Build 0)  -->
<svg version="1.1" id="Capa_1" xmlns="http://www.w3.org/2000/svg" xmlns:xlink="http://www.w3.org/1999/xlink" x="0px" y="0px"
	 viewBox="0 0 100 111.1" style="enable-background:new 0 0 100 111.1;" xml:space="preserve">
<style type="text/css">
	.st0{fill:#FFFFFF;}
</style>
<title>bluetooth-indicator-white</title>
<g id="bluetooth-audio">
	<path class="st0" d="M62.2,55.6L75,68.3c1.7-3.9,2.2-8.3,2.2-12.8s-1.1-8.9-2.2-12.8L62.2,55.6z M91.7,26.1L85,33.3
		c3.3,6.7,5.6,14.5,5.6,22.2S88.3,71.1,85,77.8l6.7,6.7c5.6-8.3,8.3-18.9,8.3-29.4S97.2,34.4,91.7,26.1z M70.6,31.7L38.9,0h-5.6
		v42.2L7.8,16.7L0,24.4l31.1,31.1L0,86.7l7.8,7.8l25.6-25.6v42.2h5.6l31.7-31.7L46.7,55.6L70.6,31.7z M44.4,21.1L55,31.7L44.4,42.2
		L44.4,21.1L44.4,21.1z M55,79.4L44.4,90V68.9L55,79.4z"/>
</g>
</svg>
