<?xml version="1.0" encoding="utf-8"?>
<!-- Generator: Adobe Illustrator 22.0.1, SVG Export Plug-In . SVG Version: 6.00 Build 0)  -->
<svg version="1.1" id="Layer_1" xmlns="http://www.w3.org/2000/svg" xmlns:xlink="http://www.w3.org/1999/xlink" x="0px" y="0px"
	 viewBox="0 0 125 85" style="enable-background:new 0 0 125 85;" xml:space="preserve">
<style type="text/css">
	.st0{fill:#FFFFFF;}
</style>
<title>hamburger_menu</title>
<path class="st0" d="M7.5,0h110c4.1,0,7.5,3.4,7.5,7.5l0,0c0,4.1-3.4,7.5-7.5,7.5H7.5C3.4,15,0,11.6,0,7.5l0,0C0,3.4,3.4,0,7.5,0z"
	/>
<path class="st0" d="M7.5,35h85c4.1,0,7.5,3.4,7.5,7.5l0,0c0,4.1-3.4,7.5-7.5,7.5h-85C3.4,50,0,46.6,0,42.5l0,0
	C0,38.4,3.4,35,7.5,35z"/>
<path class="st0" d="M7.5,70h60c4.1,0,7.5,3.4,7.5,7.5l0,0c0,4.1-3.4,7.5-7.5,7.5h-60C3.4,85,0,81.6,0,77.5l0,0
	C0,73.4,3.4,70,7.5,70z"/>
</svg>
