<?xml version="1.0" encoding="utf-8"?>
<!-- Generator: Adobe Illustrator 22.0.1, SVG Export Plug-In . SVG Version: 6.00 Build 0)  -->
<svg version="1.1" id="Capa_1" xmlns="http://www.w3.org/2000/svg" xmlns:xlink="http://www.w3.org/1999/xlink" x="0px" y="0px"
	 viewBox="0 0 512 512" style="enable-background:new 0 0 512 512;" xml:space="preserve">
<style type="text/css">
	.st0{fill:#FFFFFF;}
</style>
<g>
	<path class="st0" d="M505.6,250c9.3-10.2,8.4-25.9-2-34.9L274.8,14.9c-10.4-9.1-27-8.9-37.2,0.4L8,225.7
		c-10.2,9.3-10.7,24.9-1.1,34.9l5.8,6c9.5,9.9,25,11.1,34.5,2.6l17.2-15.4v225c0,13.8,11.2,25,25,25h89.5c13.8,0,25-11.2,25-25
		V321.5h114.2v157.4c-0.2,13.8,9.7,25,23.5,25h94.8c13.8,0,25-11.2,25-25V257.1c0,0,4.7,4.2,10.6,9.3c5.8,5.1,18.1,1,27.4-9.2
		L505.6,250z"/>
</g>
</svg>
