<svg xmlns="http://www.w3.org/2000/svg" viewBox="0 0 1095.94 429.22"><defs><style>.cls-1{fill:#fff;}.cls-2{fill:none;stroke:#fff;stroke-linecap:round;stroke-linejoin:round;stroke-width:11.45px;}</style></defs><title>logo</title><g id="Layer_3" data-name="Layer 3"><path class="cls-1" d="M377.74,64.92h44.82l23.88,64.81c2.92,8.77,5.36,18.51,8.28,27.77h1c2.93-9.26,5.36-19,8.29-27.77l22.9-64.81H531.7V223.28h-38V176.5c0-16.08,3.41-40.68,5.36-56.52h-1l-13.15,38-19.49,52.38H443L423.54,158l-12.67-38h-1c1.95,15.84,5.36,40.44,5.36,56.52v46.78H377.74Z"/><path class="cls-1" d="M566.79,64.92H669.11V100H608.69v24.85h51.65v35.09H608.69V188.2h62.85v35.08H566.79Z"/><path class="cls-1" d="M377.74,268h57c33.14,0,59.93,8.28,59.93,39.46,0,13.65-7.79,29.24-20,34.11v1c15.1,4.39,27.28,16.08,27.28,37,0,32.65-28.26,46.78-62.36,46.78H377.74Zm56,61.88c13.64,0,20-6.34,20-16.08s-6.34-13.65-20-13.65H419.64v29.73Zm2.92,64.31c16.57,0,24.36-5.85,24.36-17.54s-7.79-16.08-24.36-16.08H419.64v33.62Z"/><path class="cls-1" d="M520,346.39c0-52.13,29.73-81.37,73.58-81.37s73.57,29.48,73.57,81.37c0,52.14-29.72,82.83-73.57,82.83S520,398.53,520,346.39Zm104.27,0c0-28.75-11.69-45.31-30.69-45.31s-30.7,16.56-30.7,45.31,11.7,46.78,30.7,46.78S624.28,375.14,624.28,346.39Z"/><path class="cls-1" d="M688.6,346.39c0-52.13,29.72-81.37,73.57-81.37s73.58,29.48,73.58,81.37c0,52.14-29.72,82.83-73.58,82.83S688.6,398.53,688.6,346.39Zm104.27,0c0-28.75-11.69-45.31-30.7-45.31s-30.69,16.56-30.69,45.31,11.69,46.78,30.69,46.78S792.87,375.14,792.87,346.39Z"/><path class="cls-1" d="M849.39,401,914.2,303H855.73V268H965.84v25.33L901,391.22h65.29V426.3H849.39Z"/><path class="cls-1" d="M991.18,268H1093.5V303h-60.42v24.85h51.65V363h-51.65v28.26h62.86V426.3H991.18Z"/><polygon class="cls-2" points="117.04 262.64 228.35 69.84 5.72 69.84 117.04 262.64"/><path class="cls-2" d="M228.35,49.8a20,20,0,0,1,20,20"/><path class="cls-2" d="M230.64,27.48a40.07,40.07,0,0,1,40.08,40.07"/><path class="cls-2" d="M235.22,5.72A57.25,57.25,0,0,1,292.47,63"/><line class="cls-2" x1="117.04" y1="262.64" x2="117.04" y2="420.39"/><line class="cls-2" x1="64.37" y1="420.39" x2="169.7" y2="420.39"/><path class="cls-2" d="M45.48,134.52c21.31-13.74,50.46-14.89,72.89,0s50.45,11.45,72.88,0"/><path class="cls-2" d="M57.19,155.68c17.81-11.48,42.17-12.43,60.91,0s42.17,9.57,60.91,0"/><path class="cls-2" d="M68.9,176.85c14.31-9.22,33.88-10,48.94,0s33.87,7.69,48.93,0"/><path class="cls-2" d="M80.61,198c10.81-7,25.59-7.55,37,0s25.59,5.81,37,0"/><path class="cls-2" d="M92.32,219.19a23,23,0,0,1,25,0c7.69,5.1,17.3,3.92,25,0"/><path class="cls-2" d="M104,240.36a12,12,0,0,1,13,0c4,2.65,9,2,13,0"/></g></svg>