<svg xmlns="http://www.w3.org/2000/svg" viewBox="0 0 1109.1 505.72"><defs><style>.cls-1{font-size:243.63px;fill:#fff;font-family:SourceSansPro-Black, Source Sans Pro;}.cls-2{letter-spacing:-0.02em;}.cls-3{fill:none;stroke:#fff;stroke-linecap:round;stroke-linejoin:round;stroke-width:11.45px;}</style></defs><title>logo</title><g id="Layer_3" data-name="Layer 3"><text class="cls-1" transform="translate(360.19 223.28)">ME<tspan x="0" y="203.02">BO</tspan><tspan class="cls-2" x="317.69" y="203.02">O</tspan><tspan x="481.4" y="203.02">ZE</tspan></text><polygon class="cls-3" points="117.04 262.64 228.35 69.84 5.72 69.84 117.04 262.64"/><path class="cls-3" d="M228.35,49.8a20,20,0,0,1,20,20"/><path class="cls-3" d="M230.64,27.48a40.07,40.07,0,0,1,40.08,40.07"/><path class="cls-3" d="M235.22,5.72A57.25,57.25,0,0,1,292.47,63"/><line class="cls-3" x1="117.04" y1="262.64" x2="117.04" y2="420.39"/><line class="cls-3" x1="64.37" y1="420.39" x2="169.7" y2="420.39"/><path class="cls-3" d="M45.48,134.52c21.31-13.74,50.46-14.89,72.89,0s50.45,11.45,72.88,0"/><path class="cls-3" d="M57.19,155.68c17.81-11.48,42.17-12.43,60.91,0s42.17,9.57,60.91,0"/><path class="cls-3" d="M68.9,176.85c14.31-9.22,33.88-10,48.94,0s33.87,7.69,48.93,0"/><path class="cls-3" d="M80.61,198c10.81-7,25.59-7.55,37,0s25.59,5.81,37,0"/><path class="cls-3" d="M92.32,219.19a23,23,0,0,1,25,0c7.69,5.1,17.3,3.92,25,0"/><path class="cls-3" d="M104,240.36a12,12,0,0,1,13,0c4,2.65,9,2,13,0"/></g></svg>